<?xml version="1.0" encoding="UTF-8"?>
<svg width="80px" height="80px" viewBox="0 0 80 80" version="1.1" xmlns="http://www.w3.org/2000/svg" xmlns:xlink="http://www.w3.org/1999/xlink">
    <!-- Generator: Sketch 61 (89581) - https://sketch.com -->
    <title>book</title>
    <desc>Created with Sketch.</desc>
    <g id="book" stroke="none" stroke-width="1" fill="none" fill-rule="evenodd">
        <g id="open-book" transform="translate(9.000000, 9.000000)" fill="#20304A" fill-rule="nonzero">
            <path d="M34.92684,29.13732 C35.10804,29.49168 35.46852,29.6964 35.84124,29.6964 C35.99688,29.6964 36.1566,29.66052 36.30516,29.5848 C36.36552,29.55408 42.39288,26.49228 45.36552,25.55328 C45.9042,25.38228 46.20312,24.80676 46.03212,24.2682 C45.86208,23.72952 45.29076,23.42952 44.74704,23.59956 C41.61564,24.5898 35.62932,27.63108 35.3754,27.76008 C34.87152,28.01604 34.67088,28.6326 34.92684,29.13732 Z" id="Path"></path>
            <path d="M35.84124,17.40852 C35.99688,17.40852 36.1566,17.37264 36.30516,17.29692 C36.36552,17.2662 42.39288,14.2044 45.36552,13.2654 C45.9042,13.0944 46.20312,12.51888 46.03212,11.98032 C45.86208,11.44164 45.29076,11.14164 44.74704,11.31168 C41.61564,12.30192 35.62932,15.3432 35.3754,15.4722 C34.87164,15.72816 34.67088,16.3446 34.92684,16.84944 C35.10804,17.20368 35.46852,17.40852 35.84124,17.40852 Z" id="Path"></path>
            <path d="M60.41628,15.36048 C59.85,15.36048 59.39232,15.81924 59.39232,16.38444 L59.39232,56.32044 C59.39232,58.01412 58.014,59.39244 56.32032,59.39244 L31.74432,59.39244 L31.74432,57.03624 C33.23736,56.514 37.12644,55.29648 40.96032,55.29648 C49.8804,55.29648 55.9374,57.2718 55.99776,57.2922 C56.30592,57.39456 56.65008,57.34344 56.91936,57.15084 C57.1866,56.95836 57.34428,56.64912 57.34428,56.32032 L57.34428,11.26452 C57.34428,10.78428 57.01152,10.36848 56.54244,10.26504 C56.54244,10.26504 55.73964,10.08588 54.36744,9.83388 C53.8134,9.73152 53.27796,10.10016 53.17548,10.65516 C53.07312,11.2122 53.44068,11.74572 53.99676,11.84808 C54.52008,11.94432 54.95832,12.02928 55.29624,12.09696 L55.29624,54.95952 C52.9758,54.35124 47.82312,53.24844 40.9602,53.24844 C36.4986,53.24844 32.11596,54.71376 30.76008,55.21044 C29.5548,54.678 25.91148,53.24844 21.50412,53.24844 C14.45076,53.24844 8.6406,54.41172 6.14412,55.0026 L6.14412,12.057 C8.18904,11.5542 14.22864,10.24044 21.50412,10.24044 C25.23768,10.24044 28.43964,11.40264 29.69616,11.928 L29.69616,52.22448 C29.69616,52.59312 29.89476,52.93416 30.21528,53.11536 C30.5358,53.29764 30.93108,53.29248 31.24752,53.10204 C31.34892,53.04168 41.49468,46.98156 50.49972,43.98024 C50.91852,43.83996 51.20016,43.44984 51.20016,43.00848 L51.20016,1.02444 C51.20016,0.68856 51.03528,0.37416 50.7588,0.18276 C50.48436,-0.00876 50.13216,-0.0528 49.81572,0.06504 C41.62272,3.138 33.33252,8.29692 33.24948,8.34816 C32.7702,8.64816 32.6238,9.27996 32.9238,9.75924 C33.22284,10.23852 33.85464,10.38492 34.33488,10.08492 C34.4106,10.0368 41.62272,5.54964 49.15212,2.52168 L49.15212,42.2754 C42.16224,44.70432 34.8642,48.67032 31.74408,50.44584 L31.74408,11.26452 C31.74408,10.87644 31.52496,10.52208 31.1778,10.34808 C31.00164,10.26108 26.80536,8.19252 21.50412,8.19252 C12.25128,8.19252 5.13756,10.19448 4.83852,10.2804 C4.3992,10.40532 4.09608,10.8078 4.09608,11.26452 L4.09608,56.32056 C4.09608,56.64108 4.24764,56.9442 4.50264,57.13776 C4.68288,57.27396 4.89996,57.34464 5.12016,57.34464 C5.21436,57.34464 5.30856,57.33132 5.40072,57.30468 C5.4714,57.28524 12.55236,55.2966 21.50412,55.2966 C25.24788,55.2966 28.44684,56.46192 29.69616,56.98512 L29.69616,59.39256 L5.12016,59.39256 C3.42648,59.39256 2.04816,58.01424 2.04816,56.32056 L2.04816,16.38456 C2.04816,15.81936 1.5894,15.3606 1.0242,15.3606 C0.459,15.3606 0.00024,15.81936 0.00024,16.38456 L0.00024,56.32056 C0.00024,59.14368 2.29704,61.4406 5.12028,61.4406 L56.32032,61.4406 C59.14344,61.4406 61.44036,59.1438 61.44036,56.32056 L61.44036,16.38456 C61.44036,15.81924 60.98256,15.36048 60.41628,15.36048 Z" id="Path"></path>
            <path d="M34.92684,22.99332 C35.10804,23.34768 35.46852,23.5524 35.84124,23.5524 C35.99688,23.5524 36.1566,23.51652 36.30516,23.4408 C36.36552,23.41008 42.39288,20.34828 45.36552,19.40928 C45.9042,19.23828 46.20312,18.66276 46.03212,18.1242 C45.86208,17.58552 45.29076,17.28552 44.74704,17.45556 C41.61564,18.4458 35.62932,21.48708 35.3754,21.61608 C34.87152,21.87204 34.67088,22.4886 34.92684,22.99332 Z" id="Path"></path>
            <path d="M34.92684,35.28132 C35.10804,35.63568 35.46852,35.8404 35.84124,35.8404 C35.99688,35.8404 36.1566,35.80452 36.30516,35.7288 C36.36552,35.69808 42.39288,32.63628 45.36552,31.69728 C45.9042,31.52628 46.20312,30.95076 46.03212,30.4122 C45.86208,29.87352 45.29076,29.57352 44.74704,29.74356 C41.61564,30.7338 35.62932,33.77508 35.3754,33.90408 C34.87152,34.16004 34.67088,34.7766 34.92684,35.28132 Z" id="Path"></path>
            <path d="M24.80976,19.00392 C18.4866,17.52012 11.30112,19.41048 10.99908,19.49136 C10.45332,19.63776 10.12872,20.19888 10.27512,20.74572 C10.398,21.2034 10.81164,21.50448 11.26332,21.50448 C11.3514,21.50448 11.44044,21.4932 11.5296,21.46968 C11.59824,21.45024 18.51636,19.63056 24.34296,20.9976 C24.89076,21.12564 25.4448,20.7846 25.5738,20.23368 C25.70268,19.68384 25.36068,19.13292 24.80976,19.00392 Z" id="Path"></path>
            <path d="M24.80976,25.14792 C18.4866,23.6652 11.30112,25.55448 10.99908,25.63536 C10.45332,25.78176 10.12872,26.343 10.27512,26.88972 C10.398,27.3474 10.81164,27.64848 11.26332,27.64848 C11.3514,27.64848 11.44044,27.6372 11.5296,27.61368 C11.59824,27.59424 18.51636,25.77456 24.34296,27.1416 C24.89076,27.26964 25.4448,26.9286 25.5738,26.37768 C25.70268,25.82784 25.36068,25.27692 24.80976,25.14792 Z" id="Path"></path>
            <path d="M34.92684,41.42532 C35.10804,41.77968 35.46852,41.9844 35.84124,41.9844 C35.99688,41.9844 36.1566,41.94852 36.30516,41.8728 C36.36552,41.84208 42.39288,38.78028 45.36552,37.84128 C45.9042,37.67028 46.20312,37.09476 46.03212,36.5562 C45.86208,36.01764 45.29076,35.71752 44.74704,35.88756 C41.61564,36.8778 35.62932,39.91908 35.3754,40.04808 C34.87152,40.30404 34.67088,40.9206 34.92684,41.42532 Z" id="Path"></path>
            <path d="M24.80976,31.29192 C18.4866,29.8092 11.30112,31.6974 10.99908,31.77936 C10.45332,31.92576 10.12872,32.487 10.27512,33.03372 C10.398,33.4914 10.81164,33.79356 11.26332,33.79356 C11.3514,33.79356 11.44044,33.78132 11.5296,33.75768 C11.59824,33.73824 18.51636,31.91856 24.34296,33.2856 C24.89076,33.41364 25.4448,33.0726 25.5738,32.52168 C25.70268,31.97184 25.36068,31.42092 24.80976,31.29192 Z" id="Path"></path>
            <path d="M24.80976,43.57992 C18.4866,42.09612 11.30112,43.98648 10.99908,44.06736 C10.45332,44.21376 10.12872,44.775 10.27512,45.32172 C10.398,45.7794 10.81164,46.08156 11.26332,46.08156 C11.3514,46.08156 11.44044,46.06932 11.5296,46.04568 C11.59824,46.02624 18.51636,44.20656 24.34296,45.5736 C24.89076,45.70056 25.4448,45.3606 25.5738,44.80968 C25.70268,44.25984 25.36068,43.70892 24.80976,43.57992 Z" id="Path"></path>
            <path d="M24.80976,37.43592 C18.4866,35.95212 11.30112,37.8414 10.99908,37.92336 C10.45332,38.06976 10.12872,38.631 10.27512,39.17772 C10.398,39.6354 10.81164,39.93756 11.26332,39.93756 C11.3514,39.93756 11.44044,39.92532 11.5296,39.90168 C11.59824,39.88224 18.51636,38.06256 24.34296,39.4296 C24.89076,39.55764 25.4448,39.2166 25.5738,38.66568 C25.70268,38.11584 25.36068,37.56492 24.80976,37.43592 Z" id="Path"></path>
        </g>
    </g>
</svg>