<?xml version="1.0" encoding="UTF-8"?>
<svg width="80px" height="80px" viewBox="0 0 80 80" version="1.1" xmlns="http://www.w3.org/2000/svg" xmlns:xlink="http://www.w3.org/1999/xlink">
    <!-- Generator: Sketch 61 (89581) - https://sketch.com -->
    <title>decoration</title>
    <desc>Created with Sketch.</desc>
    <g id="decoration" stroke="none" stroke-width="1" fill="none" fill-rule="evenodd">
        <g id="denver" transform="translate(4.000000, 8.000000)" fill="#20304A" fill-rule="nonzero">
            <path d="M71.8862403,62.0648731 L52.331455,62.0648731 L57.0066797,46.8012305 C57.1063184,46.4755957 57.0456445,46.1221288 56.843584,45.8482618 C56.6409668,45.5743945 56.3208984,45.4129688 55.9802344,45.4129688 L52.9426465,45.4129688 L56.5580274,41.2749024 C56.5591406,41.2737891 56.5602538,41.2726757 56.5613672,41.2715625 L60.6042481,36.6447656 C60.9944531,36.1983399 60.9488087,35.5203516 60.5018262,35.1301465 C60.055957,34.7399413 59.3774121,34.7855859 58.987207,35.2320118 L56.1010254,38.5345606 L52.5474316,29.368916 L68.5508496,24.2873438 L61.781543,32.0335547 C61.3913379,32.4799805 61.4375391,33.1585254 61.8839649,33.5487305 C62.0871387,33.7268555 62.3392969,33.8142481 62.5897851,33.8142481 C62.8887012,33.8142481 63.1865038,33.6895606 63.398584,33.4468653 L72.6950391,22.8083496 C73.0117675,22.44542 73.0485059,21.9160547 72.7846582,21.5130469 C72.5208106,21.1105957 72.0203906,20.9324707 71.5617187,21.0783106 L41.2526368,30.7026269 L41.9757129,25.0376953 C41.9757129,25.036582 41.9762695,25.0349121 41.9762695,25.0337988 L41.9768262,25.030459 C41.9773828,25.0271191 41.9768262,25.0243359 41.9773828,25.0209962 C41.9818359,24.9859278 41.9840625,24.9503028 41.9846191,24.9146778 C41.9846191,24.9046582 41.9840625,24.8946387 41.9840625,24.8846191 C41.9840625,24.8556738 41.9829493,24.8267285 41.980166,24.7977832 C41.9790528,24.7860938 41.9779394,24.7749609 41.9762695,24.7632715 C41.9729297,24.7359962 41.9684766,24.7087207 41.9629101,24.6814453 C41.9606837,24.6697559 41.958457,24.6580663 41.9556738,24.6469337 C41.9489941,24.6202149 41.9417578,24.5940528 41.9334082,24.5678906 C41.9295118,24.5562012 41.9261719,24.5445118 41.9222754,24.5333788 C41.9128125,24.5077734 41.9022363,24.482168 41.8905469,24.4565625 C41.8855371,24.4459863 41.8816406,24.4348535 41.8766309,24.4242774 C41.8755175,24.4214941 41.8744043,24.4192675 41.873291,24.4164844 C41.8387793,24.3469043 41.7970312,24.2834472 41.7502734,24.2244434 C41.7463769,24.2194337 41.7413672,24.2144238 41.7369141,24.2088575 C41.7163184,24.1838087 41.6946094,24.1593163 41.6712305,24.1364941 C41.6690038,24.1342675 41.6667774,24.1309278 41.6645507,24.1287012 C41.659541,24.1236913 41.6539746,24.119795 41.6489649,24.1153418 C41.6278125,24.0953028 41.6066601,24.0763769 41.5843945,24.0585644 C41.574375,24.0507715 41.5649121,24.0429785 41.5554493,24.0357422 C41.5337403,24.0195996 41.5114746,24.0045703 41.489209,23.9900976 C41.4786328,23.983418 41.4680566,23.9767382 41.4569238,23.9700587 C41.4324316,23.9555859 41.4068262,23.9422266 41.3812207,23.9299805 C41.3723144,23.9255274 41.3639649,23.9210743 41.3550587,23.9166212 C41.3205469,23.9010351 41.2854785,23.8871191 41.2498535,23.8754297 C41.2409472,23.8726465 41.232041,23.87042 41.2236913,23.8676368 C41.1958594,23.8592871 41.1674707,23.8514941 41.139082,23.8453712 C41.1268359,23.8425879 41.1140332,23.840918 41.1017871,23.8386913 C41.075625,23.8336816 41.0500195,23.8297851 41.0238575,23.8270019 C41.0110547,23.8258887 40.9982519,23.8247754 40.9854493,23.8236621 C40.9581738,23.8219922 40.931455,23.8214356 40.9036231,23.8214356 C40.8924903,23.8214356 40.8813575,23.8214356 40.869668,23.8219922 C40.8379394,23.8231055 40.8062109,23.8258887 40.7739257,23.8297851 C40.7683594,23.8308984 40.7633496,23.8303418 40.7577832,23.831455 L40.7460938,23.833125 C40.7438672,23.8336816 40.741084,23.8336816 40.7388575,23.8342382 L16.9719726,27.2714941 C16.9647363,27.2726075 16.9580566,27.274834 16.9513769,27.2759472 C16.9324512,27.2787305 16.9135254,27.2826269 16.8951563,27.28708 C16.878457,27.29042 16.8617578,27.2943163 16.8456153,27.2987695 C16.8283594,27.3032226 16.8116601,27.3087891 16.7944043,27.3143555 C16.777705,27.3199219 16.7604493,27.3254882 16.74375,27.3316113 C16.7276075,27.3377344 16.7120215,27.3449707 16.6964356,27.3516504 C16.6797363,27.3588868 16.6630371,27.3655663 16.6474512,27.373916 C16.6307519,27.381709 16.615166,27.3911719 16.59958,27.3995215 C16.5851075,27.4078712 16.5700781,27.4156641 16.5556055,27.4245703 C16.5383496,27.4357031 16.5210938,27.4479493 16.5043945,27.4601953 C16.492705,27.4679882 16.4810156,27.4757813 16.4698828,27.4846875 C16.4498438,27.4997168 16.430918,27.516416 16.4119922,27.5331153 C16.4047559,27.539795 16.3964063,27.545918 16.38917,27.5531543 C16.3663476,27.5748632 16.3446387,27.5976856 16.3234863,27.6216212 C16.3207031,27.6244043 16.31792,27.6271875 16.3151368,27.6299707 C16.2533496,27.7006641 16.201582,27.7813769 16.1587207,27.8698828 C16.1525976,27.8821288 16.145918,27.894375 16.1403516,27.9071778 L16.1403516,27.9077344 C16.0657618,28.0797363 16.0401563,28.2612012 16.0568555,28.4359863 C16.0574121,28.4432226 16.059082,28.4510156 16.0596387,28.4582519 C16.0629785,28.486084 16.066875,28.513916 16.0724413,28.5411913 C16.0724413,28.543418 16.0729981,28.5456445 16.0729981,28.5473144 L17.6811328,36.4844531 L10.4058399,39.856582 C10.151455,39.9745899 9.95273438,40.1877832 9.85365242,40.4505175 L7.97387692,45.4129688 L1.07375973,45.4129688 C0.719736293,45.4129688 0.38797848,45.5877538 0.18814446,45.8799903 C-0.0122460937,46.1722266 -0.0556640625,46.5446191 0.07236321,46.874707 L5.95716804,62.0648731 L2.13249027,62.0648731 C1.53966804,62.0648731 1.05928715,62.5458106 1.05928715,63.1386328 C1.05928715,63.731455 1.53966804,64.2123925 2.13249027,64.2123925 L71.8862403,64.2123925 C72.4796191,64.2123925 72.9601396,63.731455 72.9601396,63.1386328 C72.9601396,62.5458106 72.4796191,62.0648731 71.8862403,62.0648731 L71.8862403,62.0648731 Z M54.527959,47.5604882 L50.0854101,62.0648731 L38.3920606,62.0648731 L51.0662109,47.5604882 L54.527959,47.5604882 Z M31.5181055,62.0648731 L27.2069238,32.8974609 L39.5921778,26.7482519 L35.0822754,62.0648731 L31.5181055,62.0648731 Z M26.0958691,31.0516406 L21.0270996,28.8551368 L34.421543,26.9180274 L26.0958691,31.0516406 Z M40.5596191,36.1276465 L46.2946875,49.7569922 L37.5392871,59.77708 L40.5596191,36.1276465 Z M54.5056934,40.3603418 L49.8816797,45.6523243 C49.7870507,45.7291406 49.7063379,45.8220996 49.6423243,45.9261913 L47.8671972,47.9573731 L41.5187109,32.8712988 L50.4962109,30.0201856 L54.5056934,40.3603418 Z M11.706709,41.6205762 L18.1197656,38.6481153 L19.4902149,45.4129688 L10.2700195,45.4129688 L11.706709,41.6205762 Z M2.64125973,47.5604882 L8.70864254,47.5604882 C8.71086911,47.5604882 8.71253906,47.561045 8.71476563,47.561045 C8.71643558,47.561045 8.71754879,47.5604882 8.71866215,47.5604882 L19.9249512,47.5604882 L22.863457,62.0648731 L20.3819531,62.0648731 L20.3819531,54.3058594 C20.3819531,53.7130371 19.9015722,53.2326563 19.30875,53.2326563 L13.6900195,53.2326563 C13.0966406,53.2326563 12.6162597,53.7130371 12.6162597,54.3058594 L12.6162597,62.0648731 L8.25999027,62.0648731 L2.64125973,47.5604882 Z M14.7637793,62.0648731 L14.7637793,55.3801757 L18.2349903,55.3801757 L18.2349903,62.0648731 L14.7637793,62.0648731 Z M18.5862305,30.1381934 L25.0415918,32.9353125 L29.347207,62.0648731 L25.0543945,62.0648731 L18.5862305,30.1381934 Z" id="Shape"></path>
            <path d="M39.0360937,9.48404304 L39.0550195,9.48404304 C40.4377149,9.48404304 41.5626856,10.6090137 41.5626856,11.9922656 C41.5626856,14.5589356 43.6512012,16.6474512 46.2178712,16.6474512 L58.5675,16.6474512 C61.13417,16.6474512 63.2226856,14.5589356 63.2226856,11.9922656 L63.2226856,11.8185937 C63.2226856,9.25136719 61.13417,7.16340817 58.5675,7.16340817 L58.5485743,7.16340817 C57.1658788,7.16340817 56.0403516,6.0384375 56.0403516,4.65518558 C56.0403516,2.08851563 53.9523925,0 51.385166,0 L48.7767481,0 C48.1839257,0 47.7029882,0.4809375 47.7029882,1.07375973 C47.7029882,1.66658196 48.1839257,2.14751946 48.7767481,2.14751946 L51.385166,2.14751946 C52.7678613,2.14751946 53.8933887,3.27249027 53.8933887,4.65518558 C53.8933887,7.22241214 55.9813476,9.31037116 58.5485743,9.31037116 L58.5675,9.31037116 C59.9501953,9.31037116 61.075166,10.4353418 61.075166,11.8185937 L61.075166,11.9922656 C61.075166,13.3749609 59.9501953,14.4999316 58.5675,14.4999316 L46.2178712,14.4999316 C44.8351757,14.4999316 43.710205,13.3749609 43.710205,11.9922656 C43.710205,9.42503906 41.6216894,7.33708004 39.0550195,7.33708004 L39.0360938,7.33708004 C37.6533984,7.33708004 36.5278712,6.21210937 36.5278712,4.82885746 L36.5278712,4.65518558 C36.5278712,3.27249027 37.6528418,2.14751946 39.0360938,2.14751946 L44.5729981,2.14751946 C45.1658203,2.14751946 45.6462012,1.66658196 45.6462012,1.07375973 C45.6462012,0.4809375 45.1658203,0 44.5729981,0 L39.0360938,0 C36.4688672,0 34.3809082,2.08851562 34.3809082,4.65518558 L34.3809082,4.82885746 C34.3809082,7.39608402 36.4688672,9.48404304 39.0360938,9.48404304 L39.0360937,9.48404304 Z" id="Path"></path>
        </g>
    </g>
</svg>