<?xml version="1.0" encoding="UTF-8"?>
<svg width="80px" height="80px" viewBox="0 0 80 80" version="1.1" xmlns="http://www.w3.org/2000/svg" xmlns:xlink="http://www.w3.org/1999/xlink">
    <!-- Generator: Sketch 61 (89581) - https://sketch.com -->
    <title>north</title>
    <desc>Created with Sketch.</desc>
    <g id="north" stroke="none" stroke-width="1" fill="none" fill-rule="evenodd">
        <g id="north-pole" transform="translate(7.000000, 6.000000)" fill="#20304A" fill-rule="nonzero">
            <path d="M18.7182715,20.007709 L14.7797461,20.007709 C13.8508066,20.007709 13.0951758,20.7633398 13.0951758,21.6922793 L13.0951758,27.0187559 C13.0951758,27.5770898 13.5477187,28.029498 14.105918,28.029498 C14.6641172,28.029498 15.1166602,27.5770898 15.1166602,27.0187559 L15.1166602,22.0291934 L18.3813574,22.0291934 L18.3813574,27.0187559 C18.3813574,27.5770898 18.8339004,28.029498 19.3920996,28.029498 C19.9502988,28.029498 20.4028418,27.5770898 20.4028418,27.0187559 L20.4028418,21.6922793 C20.4028418,20.7633398 19.6472109,20.007709 18.7182715,20.007709 Z" id="Path"></path>
            <path d="M51.3669961,20.007709 C50.8086621,20.007709 50.3562539,20.4601172 50.3562539,21.0184512 L50.3562539,23.0082656 L47.0916914,23.0082656 L47.0916914,21.0184512 C47.0916914,20.4601172 46.6391484,20.007709 46.0809492,20.007709 C45.5226152,20.007709 45.070207,20.4601172 45.070207,21.0184512 L45.070207,27.0187559 C45.070207,27.5770898 45.5226152,28.029498 46.0809492,28.029498 C46.6391484,28.029498 47.0916914,27.5770898 47.0916914,27.0187559 L47.0916914,25.0296152 L50.3562539,25.0296152 L50.3562539,27.0187559 C50.3562539,27.5770898 50.8086621,28.029498 51.3669961,28.029498 C51.9253301,28.029498 52.3777383,27.5770898 52.3777383,27.0187559 L52.3777383,21.0184512 C52.3777383,20.4601172 51.9253301,20.007709 51.3669961,20.007709 Z" id="Path"></path>
            <path d="M26.7591973,20.007709 L22.8208066,20.007709 C21.8918672,20.007709 21.1362363,20.7633398 21.1362363,21.6922793 L21.1362363,26.3449277 C21.1362363,27.2738672 21.8918672,28.029498 22.8208066,28.029498 L26.7591973,28.029498 C27.6881367,28.029498 28.4437676,27.2738672 28.4437676,26.3449277 L28.4437676,21.6922793 C28.4437676,20.7633398 27.6881367,20.007709 26.7591973,20.007709 Z M26.4222832,26.0080137 L23.1577207,26.0080137 L23.1577207,22.0291934 L26.4222832,22.0291934 L26.4222832,26.0080137 Z" id="Shape"></path>
            <path d="M25.5043945,23.3036719 C25.3170703,23.1163477 25.055625,23.0085352 24.7901367,23.0085352 C24.5246484,23.0085352 24.2632031,23.1164824 24.0758789,23.3036719 C23.887207,23.492209 23.7793945,23.7524414 23.7793945,24.0192773 C23.7793945,24.2849004 23.887207,24.5448633 24.0758789,24.7336699 C24.2632031,24.922207 24.5246484,25.0300195 24.7901367,25.0300195 C25.055625,25.0300195 25.3170703,24.922207 25.5043945,24.7336699 C25.6930664,24.5462109 25.8008789,24.2849004 25.8008789,24.0192773 C25.8008789,23.7524414 25.6930664,23.4923437 25.5043945,23.3036719 Z" id="Path"></path>
            <path d="M36.4371211,24.018873 C36.4371211,24.0094395 36.4371211,21.6921445 36.4371211,21.6921445 C36.4371211,20.7632051 35.6814902,20.0075742 34.7525508,20.0075742 L30.8142949,20.0075742 C29.8853555,20.0075742 29.1297246,20.7632051 29.1297246,21.6921445 L29.1297246,27.0186211 C29.1297246,27.5769551 29.5822676,28.0293633 30.1404668,28.0293633 C30.698666,28.0293633 31.151209,27.5769551 31.151209,27.0186211 L31.151209,25.0294805 L32.3269043,25.0294805 L34.667918,27.6867891 C34.8677754,27.9135996 35.1466055,28.0293633 35.4267832,28.0293633 C35.6641055,28.0293633 35.9025059,27.9462129 36.0945469,27.777082 C36.5133984,27.4080937 36.5536934,26.7693047 36.1848398,26.3504531 L35.0210039,25.0294805 L35.4263789,25.0294805 C35.9847129,25.0296152 36.4371211,24.577207 36.4371211,24.018873 Z M34.4156367,23.0081309 L31.151209,23.0081309 L31.151209,22.0290586 L34.4156367,22.0290586 L34.4156367,23.0081309 Z" id="Shape"></path>
            <path d="M43.3353691,20.007709 L38.0491875,20.007709 C37.4908535,20.007709 37.0384453,20.4601172 37.0384453,21.0184512 C37.0384453,21.5767852 37.4908535,22.0291934 38.0491875,22.0291934 L39.6814688,22.0291934 L39.6814688,27.0187559 C39.6816035,27.5770898 40.1341465,28.029498 40.6923457,28.029498 C41.2506797,28.029498 41.7030879,27.5770898 41.7030879,27.0187559 L41.7030879,22.0291934 L43.3353691,22.0291934 C43.8937031,22.0291934 44.3461113,21.5767852 44.3461113,21.0184512 C44.3461113,20.4601172 43.8937031,20.007709 43.3353691,20.007709 Z" id="Path"></path>
            <path d="M7.11319922,39.4692129 C5.31488672,39.4692129 3.85173633,40.932498 3.85173633,42.7308105 C3.85173633,44.529123 5.31488672,45.9924082 7.11319922,45.9924082 C8.91164648,45.9924082 10.3749316,44.5292578 10.3749316,42.7308105 C10.3749316,40.9323633 8.91178125,39.4692129 7.11319922,39.4692129 Z M7.11319922,43.9709238 C6.4295332,43.9709238 5.8732207,43.4146113 5.8732207,42.7308105 C5.8732207,42.0470098 6.4295332,41.4906973 7.11319922,41.4906973 C7.797,41.4906973 8.35344727,42.0470098 8.35344727,42.7308105 C8.35344727,43.4146113 7.79713477,43.9709238 7.11319922,43.9709238 Z" id="Shape"></path>
            <path d="M16.2829219,47.2904707 C14.4844746,47.2904707 13.021459,48.7536211 13.021459,50.5520684 C13.021459,52.3505156 14.4844746,53.8135312 16.2829219,53.8135312 C18.0813691,53.813666 19.5446543,52.3505156 19.5446543,50.5520684 C19.5446543,48.7536211 18.0815039,47.2904707 16.2829219,47.2904707 Z M16.2829219,51.7920469 C15.5991211,51.7921816 15.0429434,51.2358691 15.0429434,50.5520684 C15.0429434,49.8682676 15.5991211,49.3119551 16.2829219,49.3119551 C16.9667227,49.3119551 17.5231699,49.8682676 17.5231699,50.5520684 C17.5231699,51.2357344 16.9668574,51.7920469 16.2829219,51.7920469 Z" id="Shape"></path>
            <path d="M52.8333809,44.0411367 C51.0349336,44.0411367 49.571918,45.5042871 49.571918,47.3027344 C49.571918,49.1011816 51.0349336,50.5641973 52.8333809,50.5641973 C54.6318281,50.5641973 56.0949785,49.1010469 56.0949785,47.3027344 C56.0949785,45.5044219 54.6318281,44.0411367 52.8333809,44.0411367 Z M52.8333809,48.5427129 C52.1497148,48.5427129 51.5934023,47.9864004 51.5934023,47.3027344 C51.5934023,46.6189336 52.1497148,46.0626211 52.8333809,46.0626211 C53.5171816,46.0626211 54.0734941,46.6189336 54.0734941,47.3027344 C54.0734941,47.9864004 53.5171816,48.5427129 52.8333809,48.5427129 Z" id="Shape"></path>
            <path d="M14.1671016,5.93346094 C12.3686543,5.93346094 10.9056387,7.39661133 10.9056387,9.19505859 C10.9056387,10.9935059 12.3686543,12.4565215 14.1671016,12.4565215 C15.9655488,12.4565215 17.428834,10.9935059 17.428834,9.19505859 C17.428834,7.39661133 15.9656836,5.93346094 14.1671016,5.93346094 Z M14.1671016,10.4349023 C13.4833008,10.4349023 12.927123,9.87858984 12.927123,9.19492383 C12.927123,8.51112305 13.4833008,7.95481055 14.1671016,7.95481055 C14.8509023,7.95481055 15.4073496,8.51112305 15.4073496,9.19492383 C15.4073496,9.87858984 14.8510371,10.4349023 14.1671016,10.4349023 Z" id="Shape"></path>
            <path d="M50.3066602,0 C48.5083477,0 47.045332,1.46315039 47.045332,3.26159766 C47.045332,5.06004492 48.5083477,6.52306055 50.3066602,6.52306055 C52.1052422,6.52306055 53.5683926,5.06004492 53.5683926,3.26159766 C53.5683926,1.46315039 52.1052422,0 50.3066602,0 Z M50.3066602,4.50157617 C49.6229941,4.50157617 49.0668164,3.94526367 49.0668164,3.26159766 C49.0668164,2.57779688 49.6229941,2.02148438 50.3066602,2.02148438 C50.9904609,2.02148438 51.5469082,2.57779688 51.5469082,3.26159766 C51.5469082,3.94526367 50.9904609,4.50157617 50.3066602,4.50157617 Z" id="Shape"></path>
            <path d="M56.7348457,33.1292988 C57.3778125,33.1292988 58.1446289,32.8120605 58.5997324,32.3577656 L65.7574043,25.2104707 C66.0755859,24.8928281 66.2507813,24.4696641 66.2507813,24.0190078 C66.2507813,23.5683516 66.0755859,23.1453223 65.7575391,22.8276797 L58.5995977,15.6795762 C58.1446289,15.2252813 57.3778125,14.9079082 56.7348457,14.9079082 L51.3510938,14.9079082 C50.7927598,14.9079082 50.3403516,15.3603164 50.3403516,15.9186504 C50.3403516,16.4769844 50.7927598,16.9293926 51.3510938,16.9293926 L56.7344414,16.9293926 C56.8436016,16.9314141 57.092918,17.0345098 57.1712168,17.1099785 L64.0896797,24.0190078 L57.1716211,30.926959 C57.092918,31.002832 56.8436016,31.1059277 56.7348457,31.1079492 L6.92237109,31.1079492 L6.92237109,29.7158203 L9.01123828,29.7158203 C9.5694375,29.7158203 10.0219805,29.2634121 10.0219805,28.7050781 C10.0219805,28.1467441 9.5694375,27.6943359 9.01123828,27.6943359 L6.92237109,27.6943359 L6.92237109,26.5711992 L9.01123828,26.5711992 C9.5694375,26.5711992 10.0219805,26.118791 10.0219805,25.560457 C10.0219805,25.002123 9.5694375,24.5497148 9.01123828,24.5497148 L6.92237109,24.5497148 L6.92237109,23.4268477 L9.01123828,23.4268477 C9.5694375,23.4268477 10.0219805,22.9744395 10.0219805,22.4161055 C10.0219805,21.8577715 9.5694375,21.4053633 9.01123828,21.4053633 L6.92237109,21.4053633 L6.92237109,20.2822266 L9.01123828,20.2822266 C9.5694375,20.2822266 10.0219805,19.8298184 10.0219805,19.2714844 C10.0219805,18.7131504 9.5694375,18.2607422 9.01123828,18.2607422 L6.92237109,18.2607422 L6.92237109,16.9293926 L45.4214063,16.9293926 C45.9797402,16.9293926 46.4321484,16.4769844 46.4321484,15.9186504 C46.4321484,15.3603164 45.9797402,14.9079082 45.4214063,14.9079082 L38.1385371,14.9079082 L38.1385371,12.8659395 C39.0285293,12.8221406 39.7398223,12.0863203 39.7398223,11.1855469 L39.7398223,9.55663477 C40.2976172,9.28171289 40.6831816,8.70895898 40.6831816,8.04618164 L40.6831816,4.5889043 C40.6831816,3.65996484 39.9275508,2.90433398 38.9986113,2.90433398 L25.3044023,2.90433398 C24.3754629,2.90433398 23.619832,3.65996484 23.619832,4.5889043 L23.619832,8.04618164 C23.619832,8.70895898 24.0053965,9.28171289 24.5631914,9.55663477 L24.5631914,11.1855469 C24.5631914,12.0863203 25.2743496,12.8221406 26.1644766,12.8659395 L26.1644766,14.9079082 L6.58545703,14.9079082 C5.65651758,14.9079082 4.90088672,15.6635391 4.90088672,16.5924785 L4.90088672,31.4447285 C4.90088672,32.373668 5.65651758,33.1292988 6.58545703,33.1292988 L26.1643418,33.1292988 L26.1643418,58.7932559 C25.4961738,58.6489219 24.8030742,58.5704883 24.0912422,58.5704883 C23.291543,58.5704883 22.4958867,58.6685977 21.7261055,58.8617168 C21.1846172,58.9976953 20.8560586,59.5467305 20.9919023,60.0882187 C21.1278809,60.629707 21.6771855,60.9575918 22.2184043,60.8224219 C22.8274102,60.6694629 23.4575742,60.5919727 24.091377,60.5919727 C27.889207,60.5919727 31.0401621,63.3231328 31.6749082,66.9786504 L7.27693945,66.9786504 C7.857375,65.0423379 9.64867969,63.6441445 11.7422637,63.6441445 C13.1509688,63.6441445 14.4699199,64.275791 15.361125,65.3768262 C15.5821406,65.6498613 15.9292969,65.7889395 16.2769922,65.7433887 C16.6252266,65.6981074 16.9250801,65.4754746 17.068875,65.155002 C17.4103711,64.3941152 17.8704609,63.6962988 18.4363418,63.0808242 C18.8140898,62.6697891 18.7872715,62.0304609 18.3762363,61.6525781 C17.9654707,61.2748301 17.325873,61.301918 16.948125,61.7125488 C16.5575742,62.1374648 16.2069141,62.5935117 15.8988398,63.076916 C14.7278613,62.1409687 13.2722578,61.6226602 11.7422637,61.6226602 C8.5344375,61.6226602 5.82254883,63.908959 5.19494531,66.9786504 L1.0647832,66.9786504 C0.506583984,66.9786504 0.0540410156,67.4310586 0.0540410156,67.9893926 C0.0540410156,68.5477266 0.506583984,69.0001348 1.0647832,69.0001348 L63.2380957,69.0001348 C63.7964297,69.0001348 64.2488379,68.5477266 64.2488379,67.9893926 C64.2488379,67.4310586 63.7964297,66.9786504 63.2380957,66.9786504 L60.1483242,66.9786504 C57.2520762,62.1455508 51.0229395,59.053623 44.0715937,59.053623 C42.0071191,59.053623 40.0071973,59.3280059 38.1385371,59.8382285 L38.1385371,33.1292988 L56.7348457,33.1292988 Z M36.1170527,14.9079082 L28.1858262,14.9079082 L28.1858262,12.8701172 L36.1170527,12.8701172 L36.1170527,14.9079082 Z M37.7183379,10.8486328 L26.5846758,10.8486328 L26.5846758,9.73075195 L37.7183379,9.73075195 L37.7183379,10.8486328 Z M25.6413164,7.70926758 L25.6413164,4.92581836 L38.6616973,4.92581836 L38.6616973,7.70926758 L25.6413164,7.70926758 Z M28.1858262,33.1294336 L36.1170527,33.1294336 L36.1170527,34.4509453 L28.1858262,38.5797598 L28.1858262,33.1294336 L28.1858262,33.1294336 Z M36.1170527,66.9785156 L33.7205156,66.9785156 C33.4707949,65.1525762 32.7237891,63.4980586 31.6249102,62.147707 L36.1170527,59.8260996 L36.1170527,66.9785156 Z M36.1170527,57.5507168 L30.1118965,60.6540996 C29.5214883,60.1876758 28.8758262,59.7887695 28.1858262,59.4687012 L28.1858262,56.2216582 L36.1170527,52.092709 L36.1170527,57.5507168 Z M36.1171875,42.1875703 L36.1171875,42.1875703 L34.7152207,42.9119355 C34.2192832,43.168125 34.0250859,43.7780742 34.2812754,44.273877 C34.5374648,44.7698145 35.1475488,44.9637422 35.6433516,44.7078223 L36.1171875,44.4630879 L36.1171875,49.813957 L28.1859609,53.9429063 L28.1859609,48.5619844 L30.9265547,47.1455977 C31.4224922,46.8892734 31.6166895,46.279459 31.3603652,45.7835215 C31.1041758,45.287584 30.4943613,45.0936562 29.9984238,45.3495762 L28.1859609,46.286332 L28.1859609,40.8585117 L36.1171875,36.7296973 L36.1171875,42.1875703 Z M44.0715938,61.0749727 C47.3004434,61.0749727 50.4032871,61.8028418 53.0450977,63.1801465 C54.9722461,64.1846895 56.5569551,65.4796523 57.707584,66.9785156 L38.1385371,66.9785156 L38.1385371,61.9434023 C40.0074668,61.3721309 42.0135879,61.0749727 44.0715938,61.0749727 Z" id="Shape"></path>
        </g>
    </g>
</svg>