<?xml version="1.0" encoding="UTF-8"?>
<svg width="80px" height="80px" viewBox="0 0 80 80" version="1.1" xmlns="http://www.w3.org/2000/svg" xmlns:xlink="http://www.w3.org/1999/xlink">
    <!-- Generator: Sketch 61 (89581) - https://sketch.com -->
    <title>ballet</title>
    <desc>Created with Sketch.</desc>
    <g id="ballet" stroke="none" stroke-width="1" fill="none" fill-rule="evenodd">
        <g id="dancer" transform="translate(12.000000, 4.000000)" fill="#20304A" fill-rule="nonzero">
            <path d="M15.1487475,25.16037 C15.897585,21.06093 18.1765875,8.585625 19.313025,1.23462 C19.3607625,0.92568 19.27113,0.611325 19.0677825,0.37392 C18.8642925,0.1366575 18.5673225,0 18.2546775,0 L2.3112075,0 C2.0125275,0 1.7275275,0.1246875 1.52475,0.343995 C1.322115,0.56316 1.2202275,0.85728 1.2435975,1.155105 C1.3510425,2.51997 1.5251775,3.9875775 1.709715,5.5411125 C2.467245,11.921835 3.504645,20.6606475 1.1458425,33.6894225 C0.8329125,35.417805 0.78147,38.6008275 0.7770525,41.773875 C0.29241,44.932815 0.05643,48.9972 0.05643,54.19731 C0.05643,59.4377475 0.7428525,63.9025575 2.0413125,67.109235 C3.999405,71.9449725 6.93804,72.96 9.05844,72.96 C14.863605,72.96 18.06045,66.2965575 18.06045,54.1971675 C18.06045,43.967805 17.1636975,38.01273 15.1595775,34.9921575 C14.843085,31.61562 14.59884,28.3288575 14.9392725,26.312625 C14.95224,26.2361025 15.02691,25.82784 15.1487475,25.16037 Z M3.1801725,34.5524025 C4.515255,34.7738475 6.417345,35.005125 8.5467225,35.005125 C9.9577575,35.005125 11.46726,34.899675 12.97434,34.6256475 C12.99999,34.905375 13.0263525,35.1870975 13.0531425,35.47053 C13.0531425,35.4706725 13.0531425,35.4706725 13.0531425,35.470815 C13.0537125,35.4768 13.0542825,35.482785 13.0548525,35.48877 C13.0665375,35.612175 13.078365,35.7357225 13.0901925,35.8596975 C12.149265,37.303365 10.43385,39.6858225 8.107965,41.8803225 C7.19511,41.052825 6.4120725,40.19982 5.764695,39.41322 C4.5533025,37.9410525 3.6581175,36.5197575 3.083415,35.50758 C3.11106,35.15874 3.1431225,34.8384 3.1801725,34.5524025 Z M9.8235225,43.27383 C10.49769,42.62745 11.160315,41.9319075 11.808405,41.1889125 C12.405765,40.503915 12.939,39.8382975 13.4096775,39.2167125 C13.6034775,41.354925 13.7588025,43.458225 13.7588025,45.2914875 C13.7588025,45.32355 13.7588025,45.3553275 13.7588025,45.38739 C12.29946,44.8568625 10.98504,44.1130125 9.8235225,43.27383 Z M13.7511075,47.6983125 C13.72389,50.61144 13.5966375,53.269635 12.995715,55.2102 C12.2391825,57.65322 10.8471,58.6956075 8.34081,58.6956075 C5.83452,58.6956075 4.4424375,57.65322 3.685905,55.2102 C3.1035075,53.3292 2.9658525,50.774175 2.93322,47.9659275 C4.694805,47.2237875 6.44214,46.1507625 8.1337575,44.7713625 C9.74814,45.99444 11.6193075,47.042385 13.7511075,47.6983125 Z M2.91897,41.853675 C2.91897,41.853675 2.91897,41.8535325 2.91897,41.85339 C2.92011,41.0181975 2.9245275,40.17075 2.9362125,39.3483825 C3.854625,40.6240425 5.015715,42.0242475 6.4277475,43.335675 C5.3538675,44.1839775 4.180665,44.9529075 2.922675,45.567795 C2.922675,45.4755975 2.922675,45.3838275 2.922675,45.291345 C2.922675,44.84019 2.9216775,44.368515 2.9208225,43.88373 C2.9193975,43.2252375 2.918115,42.5423775 2.91897,41.853675 Z M15.0424425,55.8433275 C15.0438675,55.8384825 15.04515,55.833495 15.046575,55.82865 C15.09246,55.67988 15.1350675,55.5272625 15.17625,55.3727925 C15.18537,55.3368825 15.1952025,55.3006875 15.2046075,55.264065 C15.2442225,55.10988 15.2817,54.9532725 15.3168975,54.793815 C15.324735,54.758475 15.3320025,54.7224225 15.3396975,54.6867975 C15.3713325,54.5385975 15.4014,54.3886875 15.4294725,54.236355 C15.4340325,54.2114175 15.43902,54.18705 15.44358,54.1621125 C15.47379,53.9951025 15.501435,53.824815 15.527655,53.65296 C15.534495,53.608785 15.5411925,53.564325 15.547605,53.519865 C15.5725425,53.34915 15.5961975,53.176725 15.6178575,53.001735 C15.622275,52.966395 15.6261225,52.9303425 15.6303975,52.8947175 C15.649065,52.738395 15.6663075,52.58022 15.68241,52.42062 C15.6865425,52.379865 15.69096,52.3395375 15.69495,52.2984975 C15.7121925,52.12023 15.7278675,51.9399675 15.74226,51.757995 C15.7463925,51.7065525 15.75024,51.654825 15.7540875,51.602955 C15.76791,51.418845 15.7808775,51.2337375 15.7922775,51.0462075 C15.79413,51.0157125 15.795555,50.984505 15.7974075,50.9538675 C15.80724,50.78472 15.816075,50.6141475 15.8241975,50.4422925 C15.8267625,50.38914 15.8293275,50.33613 15.8316075,50.2826925 C15.8387325,50.11953 15.84543,49.955655 15.85113,49.790355 C15.89616,51.1622025 15.918675,52.6302375 15.918675,54.197025 C15.918675,59.1943575 15.25035,70.8177975 9.0585825,70.8177975 C4.6846875,70.8177975 2.745405,64.3981725 2.3009475,57.4655475 C2.3063625,57.4758075 2.3123475,57.48507 2.317905,57.49533 C2.3826,57.61674 2.449575,57.7348725 2.5189725,57.8494425 C2.532795,57.872385 2.547045,57.8947575 2.5611525,57.917415 C2.6309775,58.02999 2.7025125,58.14 2.776755,58.2458775 C2.78103,58.252005 2.7851625,58.25856 2.78958,58.2646875 C2.8669575,58.37427 2.9476125,58.47915 3.03012,58.5816075 C3.046935,58.6024125 3.0636075,58.62336 3.080565,58.6440225 C3.1622175,58.7429175 3.2460075,58.8386775 3.3323625,58.9307325 C3.347325,58.9466925 3.3628575,58.9620825 3.3779625,58.9779 C3.461895,59.065395 3.5478225,59.1501825 3.6361725,59.2314075 C3.6455775,59.2401 3.6546975,59.24922 3.6641025,59.25777 C3.7578675,59.3427 3.854625,59.4234975 3.9533775,59.5015875 C3.973755,59.51769 3.9941325,59.53365 4.0146525,59.5494675 C4.1135475,59.62542 4.2144375,59.6985225 4.3181775,59.7677775 C4.333425,59.777895 4.3491,59.7874425 4.36449,59.7974175 C4.463385,59.86197 4.564275,59.92353 4.6675875,59.981955 C4.6826925,59.990505 4.69737,59.999625 4.7126175,60.00789 C4.8226275,60.06888 4.93563,60.12588 5.05077,60.18003 C5.0745675,60.1912875 5.09865,60.20226 5.1227325,60.2132325 C5.23944,60.2662425 5.358,60.31683 5.4798375,60.363 C5.493375,60.36813 5.50734,60.37269 5.5208775,60.37782 C5.6365875,60.420855 5.7548625,60.4606125 5.8751325,60.4976625 C5.8959375,60.504075 5.9164575,60.510915 5.9375475,60.517185 C6.06423,60.554805 6.19362,60.5885775 6.3251475,60.6195 C6.352365,60.6259125 6.379725,60.6318975 6.407085,60.638025 C6.5423175,60.6680925 6.67926,60.6957375 6.8196225,60.718965 C6.828885,60.7205325 6.83829,60.72153 6.8475525,60.7230975 C6.98307,60.7450425 7.1214375,60.76314 7.2618,60.7786725 C7.2884475,60.781665 7.31481,60.7849425 7.3416,60.78765 C7.4850975,60.802185 7.63116,60.8134425 7.7797875,60.8214225 C7.8097125,60.82299 7.8399225,60.82413 7.86999,60.825555 C8.0246025,60.8325375 8.1810675,60.83724 8.3412375,60.83724 C8.6664225,60.83724 8.98035,60.8228475 9.2831625,60.7940625 C12.2106825,60.51576 14.0993775,58.888695 15.0424425,55.8433275 Z M13.0417425,24.775335 C12.91677,25.4591925 12.8405325,25.87743 12.82728,25.955805 C12.82728,25.955805 12.82728,25.955805 12.82728,25.9559475 C12.542565,27.6422925 12.60213,29.90391 12.7900875,32.4325725 C9.2860125,33.1074525 5.6411475,32.7281175 3.54255,32.3852625 C5.57688,19.97052 4.5769575,11.5249725 3.83667,5.2886025 C3.706425,4.1913525 3.58131,3.137565 3.482415,2.14206 L17.0023875,2.14206 C15.8219175,9.5559075 13.748685,20.905035 13.0417425,24.775335 Z" id="Shape"></path>
            <path d="M55.9510575,45.4575 C55.293705,44.6376975 54.48573,43.698765 53.630445,42.704685 C51.5740275,40.3148175 49.0147275,37.340415 46.898745,34.1137875 C44.382195,30.2765475 43.8887175,25.3084275 44.230575,22.220025 C44.3175,21.4358475 44.0642775,20.651385 43.535745,20.067705 C43.0094925,19.486305 42.2607975,19.16454 41.47263,19.16682 L35.50587,19.2347925 C35.0645475,19.2379275 34.660845,19.39368 34.344495,19.6523175 C33.1590375,19.29792 31.42581,18.1659 30.105975,14.7345 C29.3702475,12.821295 27.2048175,8.50326 23.66982,1.89981 L23.387955,1.373985 C23.1082275,0.8531475 22.459425,0.65721 21.9377325,0.936795 C21.41661,1.2165225 21.220815,1.8657525 21.5005425,2.3870175 L21.78141,2.91099 C25.22535,9.344295 27.41244,13.69881 28.1067,15.5035725 C28.455825,16.4112975 28.837725,17.192055 29.2388625,17.8636575 C28.8774825,18.8392125 28.287675,20.36382 27.5536575,22.01796 C26.423205,24.565575 25.322535,26.5903575 24.30936,27.99897 C23.03598,26.307495 21.4614975,24.2180175 19.55157,21.6852225 C19.1954625,21.212835 18.5240025,21.1189275 18.051615,21.4748925 C17.5792275,21.831 17.4851775,22.50246 17.841285,22.9748475 C23.155395,30.0220425 25.88256,33.6495225 26.684265,34.7367975 C27.882975,36.362295 31.249965,38.88255 36.69033,42.22788 C36.8885475,42.5372475 37.142055,42.8114175 37.44102,43.0285875 L49.70229,51.9356925 C50.4981525,52.5247875 51.45048,52.8217575 52.404375,52.8217575 C53.261655,52.8217575 54.120075,52.58193 54.8669175,52.098855 C55.944645,51.4018875 56.6803725,50.2755675 56.8852875,49.0086 C57.0899175,47.746905 56.7492,46.4525775 55.9510575,45.4575 Z M25.6783575,29.8185525 C27.81543,27.087255 29.7339075,22.654935 30.808215,19.9059675 C31.8027225,20.8962 32.80749,21.4144725 33.6492375,21.6795225 C33.64881,21.7023225 33.6486675,21.72498 33.64824,21.74778 C33.6443925,21.9499875 33.6412575,22.1517675 33.6395475,22.3526925 C33.6395475,22.35426 33.6395475,22.3558275 33.6395475,22.357395 C33.6378375,22.5635925 33.6375525,22.768935 33.63798,22.9737075 C33.6381225,23.0124675 33.638265,23.0512275 33.6384075,23.0899875 C33.6401175,23.4981075 33.646245,23.903235 33.65622,24.3052275 C33.657075,24.34071 33.6580725,24.37605 33.6589275,24.4115325 C33.6697575,24.8165175 33.684435,25.2180825 33.7028175,25.6159425 C33.7042425,25.64658 33.7056675,25.6772175 33.7070925,25.7079975 C33.7261875,26.10885 33.7489875,26.505855 33.7752075,26.898585 C33.77706,26.92566 33.77877,26.9525925 33.7806225,26.979525 C33.807555,27.3752475 33.8376225,27.76641 33.8709675,28.15287 C33.8729625,28.1755275 33.874815,28.198185 33.87681,28.2207 C33.8983275,28.468365 33.9211275,28.7138925 33.9450675,28.957425 C32.8746075,30.4620825 31.055025,32.4419775 28.405095,33.4611375 C28.0011075,32.913225 27.1196025,31.73532 25.6783575,29.8185525 Z M30.1001325,35.1221175 C31.848465,34.2910575 33.242115,33.13809 34.31115,31.993245 C34.35048,32.2686975 34.39095,32.54016 34.432275,32.80749 C34.4337,32.8164675 34.4349825,32.8255875 34.4364075,32.834565 C34.4907,33.1849725 34.54656,33.5281125 34.60356,33.8635575 C34.6048425,33.870825 34.6059825,33.8780925 34.607265,33.88536 C34.6644075,34.22109 34.72269,34.5489825 34.781685,34.8687525 C34.7829675,34.8755925 34.78425,34.882575 34.7855325,34.8895575 C34.8151725,35.049585 34.8448125,35.20776 34.8747375,35.363655 C34.8750225,35.3652225 34.8753075,35.36679 34.8755925,35.3683575 C34.90509,35.522115 34.93473,35.6735925 34.96437,35.823075 C34.9656525,35.829345 34.9667925,35.8357575 34.968075,35.8420275 C34.9978575,35.9919375 35.0277825,36.1398525 35.0577075,36.285345 C35.05899,36.2917575 35.060415,36.29817 35.0616975,36.3045825 C35.0904825,36.4448025 35.11941,36.5830275 35.148195,36.7189725 C35.1497625,36.726525 35.15133,36.7340775 35.1528975,36.7414875 C35.1825375,36.8811375 35.2121775,37.0185075 35.241675,37.15374 C35.2435275,37.162005 35.2452375,37.169985 35.24709,37.17825 C35.2751625,37.3065 35.3030925,37.4326125 35.3310225,37.5565875 C35.3330175,37.5657075 35.335155,37.5748275 35.33715,37.5839475 C35.365935,37.7116275 35.394435,37.8370275 35.422935,37.96029 C35.425785,37.9726875 35.428635,37.9848 35.431485,37.997055 C35.457705,38.110485 35.4837825,38.22192 35.5097175,38.33136 C35.512425,38.3429025 35.515275,38.35473 35.5179825,38.366415 C35.5452,38.48127 35.572275,38.59356 35.599065,38.7037125 C35.603055,38.720385 35.607045,38.73663 35.6111775,38.75316 C35.63526,38.8519125 35.6592,38.948955 35.682855,39.0440025 C35.685135,39.05298 35.687415,39.0625275 35.6895525,39.071505 C33.2889975,37.53222 31.3965975,36.1942875 30.1001325,35.1221175 Z M54.7711575,48.666315 C54.6611475,49.3461825 54.28224,49.9263 53.7041175,50.3000775 C52.8704925,50.8390125 51.7746675,50.8045275 50.9692575,50.208165 L38.70015,41.29536 C38.59071,41.2159875 38.50464,41.11353 38.4469275,40.9951125 C38.446215,40.9936875 38.44593,40.9922625 38.4452175,40.9908375 C38.43738,40.97445 38.432535,40.95792 38.4258375,40.9412475 C38.4164325,40.91802 38.405745,40.895505 38.3984775,40.8711375 C38.176605,40.130565 37.79442,38.769975 37.389435,36.9515325 C37.3887225,36.9483975 37.38801,36.945405 37.3872975,36.94227 C37.3687725,36.8589075 37.350105,36.774405 37.3314375,36.6890475 C37.3305825,36.685485 37.32987,36.682065 37.3291575,36.6785025 C37.3109175,36.594855 37.2926775,36.51021 37.274295,36.4248525 C37.2730125,36.41901 37.2718725,36.4134525 37.27059,36.40761 C37.252635,36.3233925 37.2345375,36.2381775 37.21644,36.15225 C37.215015,36.145125 37.2134475,36.138285 37.2120225,36.13116 C37.194495,36.047655 37.1769675,35.96301 37.15944,35.8779375 C37.1573025,35.86782 37.1553075,35.857845 37.15317,35.847585 C37.13607,35.7645075 37.1191125,35.680575 37.1020125,35.5960725 C37.0994475,35.58339 37.0968825,35.5709925 37.09446,35.5584525 C37.07793,35.4760875 37.0614,35.392725 37.04487,35.308935 C37.0418775,35.29383 37.038885,35.2788675 37.0358925,35.26362 C37.0196475,35.1811125 37.003545,35.09775 36.9873,35.01396 C36.9840225,34.9970025 36.980745,34.98033 36.9774675,34.9633725 C36.9612225,34.87887 36.9449775,34.79337 36.928875,34.707585 C36.9258825,34.691625 36.92289,34.6758075 36.9198975,34.659705 C36.9036525,34.573065 36.88755,34.4857125 36.8714475,34.39779 C36.868455,34.381545 36.8654625,34.365585 36.86247,34.34934 C36.84651,34.2617025 36.83055,34.1733525 36.8147325,34.084575 C36.81174,34.067475 36.808605,34.05066 36.8056125,34.03356 C36.79008,33.946635 36.7748325,33.8589975 36.7594425,33.7709325 C36.75588,33.7506975 36.75246,33.730605 36.7488975,33.71037 C36.733935,33.6241575 36.719115,33.5372325 36.7044375,33.4500225 C36.7007325,33.4277925 36.696885,33.4058475 36.69318,33.3836175 C36.6785025,33.29598 36.663825,33.20763 36.64929,33.1188525 C36.6457275,33.096765 36.6420225,33.07482 36.63846,33.0527325 C36.62421,32.9652375 36.60996,32.8768875 36.5958525,32.788395 C36.592005,32.7640275 36.588015,32.7398025 36.5841675,32.715435 C36.57006,32.6266575 36.5562375,32.5371675 36.542415,32.447535 C36.53871,32.4234525 36.535005,32.3995125 36.5313,32.3752875 C36.5177625,32.28651 36.504225,32.19702 36.49083,32.107245 C36.48684,32.08074 36.48285,32.05452 36.4790025,32.0278725 C36.466035,31.93995 36.45321,31.8514575 36.440385,31.76268 C36.4362525,31.733895 36.43212,31.70511 36.4279875,31.6761825 C36.4154475,31.58826 36.40305,31.49991 36.390795,31.411275 C36.3866625,31.3812075 36.3823875,31.3512825 36.378255,31.3210725 C36.366,31.2318675 36.3538875,31.1420925 36.3419175,31.052175 C36.3379275,31.022535 36.3339375,30.992895 36.33009,30.9631125 C36.31812,30.872625 36.306435,30.78171 36.29475,30.69051 C36.2909025,30.660015 36.2869125,30.6296625 36.283065,30.5991675 C36.271665,30.5091075 36.26055,30.41862 36.249435,30.3278475 C36.245445,30.2953575 36.241455,30.26301 36.237465,30.23052 C36.2264925,30.1400325 36.215805,30.0491175 36.20526,29.95806 C36.2014125,29.9251425 36.197565,29.8923675 36.1937175,29.8593075 C36.1831725,29.767965 36.1729125,29.676195 36.1626525,29.58414 C36.1589475,29.55051 36.1552425,29.5170225 36.1515375,29.48325 C36.1415625,29.3921925 36.1318725,29.30085 36.1221825,29.2092225 C36.1184775,29.1738825 36.1147725,29.1385425 36.1110675,29.10306 C36.10152,29.0111475 36.0922575,28.9188075 36.0831375,28.8261825 C36.079575,28.790985 36.076155,28.755645 36.0725925,28.720305 C36.063615,28.6278225 36.05478,28.535055 36.0460875,28.4420025 C36.0426675,28.4058075 36.03939,28.369755 36.03597,28.3334175 C36.02742,28.2407925 36.0192975,28.1475975 36.011175,28.0544025 C36.0078975,28.0167825 36.00462,27.979305 36.0013425,27.9415425 C35.993505,27.8497725 35.9859525,27.757575 35.9784,27.6650925 C35.975265,27.62562 35.9719875,27.58629 35.9688525,27.5468175 C35.961585,27.4550475 35.9546025,27.3629925 35.9477625,27.2706525 C35.94477,27.2298975 35.941635,27.1891425 35.9386425,27.148245 C35.9320875,27.057615 35.925675,26.9667 35.919405,26.8755 C35.9164125,26.832465 35.9135625,26.78943 35.9107125,26.7462525 C35.9047275,26.6559075 35.8990275,26.56542 35.8933275,26.4746475 C35.89062,26.43033 35.8879125,26.38587 35.885205,26.34141 C35.87979,26.2517775 35.8748025,26.16186 35.869815,26.0718 C35.86725,26.0260575 35.8648275,25.9801725 35.8622625,25.9342875 C35.85756,25.844655 35.853,25.754595 35.8485825,25.664535 C35.8463025,25.6176525 35.8440225,25.57077 35.841885,25.5238875 C35.8377525,25.434825 35.833905,25.345335 35.8302,25.255845 C35.828205,25.207395 35.82621,25.158945 35.824215,25.110495 C35.820795,25.0220025 35.8175175,24.933225 35.8143825,24.844305 C35.8126725,24.7942875 35.8109625,24.74427 35.8092525,24.69411 C35.8064025,24.60633 35.8038375,24.518265 35.801415,24.4300575 C35.79999,24.37833 35.798565,24.3266025 35.7972825,24.2747325 C35.795145,24.188235 35.79315,24.101595 35.79144,24.014955 C35.7903,23.9609475 35.7893025,23.90694 35.788305,23.8529325 C35.7867375,23.767005 35.785455,23.680935 35.784315,23.5947225 C35.7836025,23.5397175 35.78289,23.4847125 35.78232,23.429565 C35.781465,23.34492 35.7807525,23.2601325 35.780325,23.175345 C35.78004,23.11749 35.779755,23.059635 35.7796125,23.0016375 C35.7793764,22.91856 35.7793764,22.83534 35.7793764,22.75212 C35.7796125,22.6924125 35.779755,22.6325625 35.78004,22.5727125 C35.7804675,22.491345 35.7810375,22.4099775 35.78175,22.328325 C35.78232,22.265625 35.7830325,22.202925 35.7838875,22.1400825 C35.784885,22.0605675 35.7861675,21.98091 35.78745,21.90111 C35.78859,21.8367 35.78973,21.7721475 35.791155,21.707595 C35.7927225,21.62922 35.794575,21.5507025 35.79657,21.472185 C35.797425,21.43941 35.79828,21.406635 35.7992775,21.37386 L41.4967125,21.3090225 C41.4992775,21.3090225 41.5017,21.3090225 41.5041225,21.3090225 C41.7349725,21.3090225 41.8808925,21.432 41.9478675,21.5059575 C42.0165525,21.5817675 42.1279875,21.74493 42.1014825,21.984615 C41.7019125,25.5914325 42.2818875,30.9804975 45.1073775,35.2888425 C47.2998825,38.632035 49.9096275,41.6651475 52.0066575,44.1021825 C52.849545,45.0817275 53.6456925,46.00698 54.27996,46.797855 C54.7058925,47.328525 54.88017,47.9921475 54.7711575,48.666315 Z" id="Shape"></path>
        </g>
    </g>
</svg>