<?xml version="1.0" encoding="UTF-8"?>
<svg width="80px" height="80px" viewBox="0 0 80 80" version="1.1" xmlns="http://www.w3.org/2000/svg" xmlns:xlink="http://www.w3.org/1999/xlink">
    <!-- Generator: Sketch 61 (89581) - https://sketch.com -->
    <title>dog</title>
    <desc>Created with Sketch.</desc>
    <g id="dog" stroke="none" stroke-width="1" fill="none" fill-rule="evenodd">
        <g id="dachshund" transform="translate(6.000000, 20.000000)" fill="#20304A" fill-rule="nonzero">
            <path d="M68.7033825,4.736985 C68.547345,4.414365 68.240115,4.191495 67.885005,4.1431875 L62.130855,3.3617175 C61.387575,3.2608275 60.7900725,2.725455 60.6081,1.9979925 C60.5361375,1.710285 60.3480375,1.46547 60.088545,1.3219725 C59.88363,1.208685 55.0228125,-1.42443 50.92551,1.1635125 C47.4828525,3.33792 44.1172875,9.6308625 43.37073,11.0865 C41.55756,12.1117875 37.07166,14.2116675 34.1878875,13.7422725 C30.892575,13.20576 18.6018075,11.7726375 13.4703825,11.181405 C11.2086225,10.92063 8.9602575,11.2479525 6.96825,12.127605 C5.58828,12.736935 4.4754975,13.5251025 3.64002,14.4821325 C3.283485,14.7848025 2.0709525,15.8857575 1.1452725,17.58678 C-0.30951,20.2602225 -0.3797625,23.1341625 0.9417825,25.8980925 C1.487985,27.04023 1.723395,28.1669775 1.6417425,29.2471275 C1.59714,29.8356525 2.0381775,30.3489375 2.626845,30.3933975 C2.654205,30.395535 2.681565,30.3965325 2.7084975,30.3965325 C3.26211,30.3965325 3.73065,29.96946 3.773115,29.408295 C3.8832675,27.9506625 3.5796,26.4594 2.870235,24.9758325 C2.2684575,23.7172725 2.085915,22.548345 2.15403,21.49812 C2.4921825,23.3063025 3.23817,25.5558075 4.62726,28.3456725 C4.9426125,28.979085 4.8394425,29.728065 4.36449,30.25389 L3.0128775,31.7502825 C2.6904,32.1071025 2.64651,32.6357775 2.9048625,33.0413325 C3.648,34.2075525 5.56149,37.68555 5.492805,39.7461 C5.4832575,40.0355175 5.591415,40.3165275 5.7927675,40.52472 C5.99412,40.7329125 6.2712825,40.850475 6.560985,40.850475 L10.9330275,40.850475 C11.55162,40.850475 12.1288875,40.605375 12.5583825,40.160205 C12.9878775,39.715035 13.2121725,39.1295025 13.190085,38.5113375 C13.1406375,37.1327925 12.021585,36.0529275 10.642185,36.0529275 L10.341225,36.0529275 L9.0779625,33.6535125 C8.806215,33.0282225 8.954415,32.2977675 9.45117,31.827945 C10.710585,30.6365025 11.837475,29.315955 12.8174475,27.894375 C14.7534525,28.0532625 21.004785,28.6845375 26.1506025,30.527775 C27.47058,31.00059 28.5833625,31.416975 29.56533,31.78434 C32.9142225,33.0372 34.660845,33.6905625 37.034895,33.7276125 C37.2898275,35.886345 37.7281575,37.8444375 38.0222775,39.0103725 C38.29545,40.0938 39.2668725,40.850475 40.3849275,40.850475 L43.82502,40.850475 C45.06306,40.850475 46.0960425,39.92223 46.2277125,38.6914575 C46.3713525,37.350675 45.43755,36.12603 44.101755,35.903445 C43.789965,35.8514325 43.50183,35.7918675 43.2392025,35.72532 C43.2058575,35.08863 43.2859425,34.2118275 43.4159025,33.33816 C48.50358,31.535535 52.42518,27.375105 53.9190075,22.1828325 L55.551915,16.5064875 C56.8086225,15.60261 57.7952925,14.383665 58.4183025,12.959235 L58.8822825,11.8988925 C59.0786475,11.4500175 59.5365,11.1633075 60.02898,11.18625 L61.1756775,11.23926 C63.7113225,11.35611 66.098055,10.0706175 67.39452,7.8832425 L68.66049,5.7468825 C68.8433175,5.4387975 68.8592775,5.0594625 68.7033825,4.736985 Z M65.5558425,6.7936875 C64.6635075,8.299485 63.0250425,9.184695 61.27443,9.1041825 L60.1277325,9.0511725 C58.75959,8.9887575 57.4729575,9.7884675 56.9243325,11.042325 L56.4603525,12.1026675 C56.134455,12.8476575 55.6751775,13.5168375 55.1085975,14.0847 C55.2225975,13.478505 55.17999,12.8421 54.965385,12.2357625 C54.6164025,11.25009 54.20757,10.381125 53.8791075,9.682875 C53.69571,9.2928525 53.53725,8.956125 53.44377,8.713305 C53.22318,8.1400275 53.64669,7.28232 53.8132725,7.02582 C54.137175,6.5351925 54.003795,5.8742775 53.5140225,5.54781 C53.02311,5.220345 52.359345,5.353155 52.0320225,5.84421 C51.903345,6.037155 50.7939825,7.7786475 51.44877,9.48081 C51.5700375,9.7958775 51.743745,10.1652375 51.9448125,10.59288 C52.2531825,11.24838 52.6367925,12.0639075 52.950435,12.94926 C53.1306975,13.45827 53.0195475,13.9982025 52.653465,14.393355 C52.2956475,14.7793875 51.779085,14.9278725 51.2727825,14.7907875 C50.60232,14.609385 48.41979,13.849575 48.4794975,11.6916975 C48.495885,11.101605 48.0309075,10.6101225 47.440815,10.593735 C46.84887,10.578915 46.35924,11.042325 46.3428525,11.6324175 C46.27431,14.1047925 47.9491125,16.1054925 50.714325,16.854045 C51.020415,16.93698 51.331065,16.9773075 51.6387225,16.9773075 C52.2258225,16.9773075 52.801665,16.8293925 53.31552,16.54995 L51.8650125,21.5923125 C50.68497,25.694175 47.7678525,29.057745 43.93161,30.82446 C44.0047125,30.5638275 44.07411,30.3552075 44.13396,30.22254 C44.408415,29.9057625 44.481375,29.4426375 44.2823025,29.04435 C44.0181075,28.516245 43.3765725,28.30221 42.848325,28.5662625 C42.5192925,28.7307075 42.02211,28.9792275 41.4314475,32.241195 C41.219835,33.4095525 40.9146,35.558595 41.2476225,36.82428 C41.3373975,37.165425 41.58948,37.440165 41.9216475,37.558725 C42.4403475,37.743975 43.0556625,37.8965925 43.750635,38.012445 C43.971225,38.04921 44.125695,38.2477125 44.10261,38.4643125 C44.0873625,38.606385 43.96809,38.7136875 43.8251625,38.7136875 L40.38507,38.7136875 C40.2477,38.7136875 40.1284275,38.6210625 40.0950825,38.488395 C39.6285375,36.63846 38.2055325,30.33198 39.48447,26.8508475 C39.6881025,26.2968075 39.4039575,25.6826325 38.849775,25.4791425 C38.2950225,25.2753675 37.68156,25.5597975 37.47807,26.1138375 C36.9019425,27.682335 36.7685625,29.6370075 36.8566275,31.5838425 C34.9354425,31.5117375 33.3887475,30.933045 30.314595,29.7829275 C29.3260725,29.41314 28.2057375,28.9940475 26.871795,28.5161025 C22.1970825,26.841585 16.8208425,26.13279 14.102655,25.862895 C15.8176425,22.9896675 15.86481,22.4236575 15.8914575,22.1058825 C15.9404775,21.517785 15.5032875,21.00108 14.9150475,20.95206 C14.33436,20.90361 13.823925,21.328545 13.7633625,21.9049575 C13.73985,22.0081275 13.522965,22.7434275 11.6891325,25.7196825 C10.6602825,27.3892125 9.4131225,28.922085 7.98228,30.2756925 C6.81606,31.378785 6.4787625,33.101895 7.142955,34.5632325 C7.1516475,34.5820425 7.160625,34.60071 7.1701725,34.61895 L8.750355,37.6201425 C8.93532,37.97112 9.2994075,38.1909975 9.6961275,38.1909975 L10.6423275,38.1909975 C10.8651975,38.1909975 11.0461725,38.36556 11.0541525,38.58843 C11.055435,38.6224875 11.044035,38.6521275 11.02038,38.6766375 C10.996725,38.7011475 10.96737,38.7136875 10.9333125,38.7136875 L7.5617625,38.7136875 C7.23558,36.435255 5.859315,33.840045 5.132565,32.593455 L5.9509425,31.6872975 C7.019265,30.50469 7.2508275,28.8192 6.541035,27.39363 C4.31604,22.92483 3.53799,19.216125 4.4065275,17.21856 C4.98579,15.8859 6.13833,14.831115 7.8318,14.0834175 C9.4763925,13.3572375 11.3420025,13.08834 13.225995,13.3053675 C17.21799,13.7653575 30.5025525,15.3083475 33.844605,15.8524125 C34.2406125,15.916965 34.650585,15.94632 35.0699625,15.94632 C39.326295,15.9461775 44.488785,12.9132075 44.7271875,12.7715625 C44.904885,12.6661125 45.04824,12.511215 45.1398675,12.325965 C45.175635,12.253575 48.75495,5.06331 52.06722,2.9712675 C54.5528475,1.40163 57.6559275,2.552745 58.6961775,3.020145 C58.70601,3.0450825 58.717695,3.0690225 58.7280975,3.093675 L57.7810425,3.438525 C57.22629,3.6404475 56.940435,4.2537675 57.1423575,4.8083775 C57.30039,5.2424325 57.7100775,5.5117575 58.14684,5.5117575 C58.26825,5.5117575 58.391655,5.4909525 58.51221,5.44692 L60.16578,4.8448575 C60.657405,5.17446 61.22712,5.396475 61.843575,5.4801225 L66.0003,6.0447075 L65.5558425,6.7936875 Z" id="Shape"></path>
        </g>
    </g>
</svg>