<?xml version="1.0" encoding="UTF-8"?>
<svg width="80px" height="80px" viewBox="0 0 80 80" version="1.1" xmlns="http://www.w3.org/2000/svg" xmlns:xlink="http://www.w3.org/1999/xlink">
    <!-- Generator: Sketch 61 (89581) - https://sketch.com -->
    <title>makeup</title>
    <desc>Created with Sketch.</desc>
    <g id="makeup" stroke="none" stroke-width="1" fill="none" fill-rule="evenodd">
        <g transform="translate(4.000000, 5.000000)" fill="#20304A" fill-rule="nonzero">
            <path d="M34.7627637,38.8384863 L36.5028222,38.8384863 C37.093418,38.8384863 37.5715722,38.360332 37.5715722,37.7697363 C37.5715722,37.1791406 37.093418,36.7009863 36.5028222,36.7009863 L35.021045,36.7009863 L35.021045,34.1087109 C35.021045,33.5181153 34.542334,33.0399609 33.952295,33.0399609 C33.3616993,33.0399609 32.883545,33.5181153 32.883545,34.1087109 L32.883545,36.9681738 C32.883545,37.9996288 33.7268555,38.8384863 34.7627637,38.8384863 L34.7627637,38.8384863 Z" id="Path"></path>
            <path d="M30.9481055,30.8161816 C30.532295,30.3981445 29.85542,30.395918 29.4368262,30.8117285 C28.0285254,32.2111231 25.7373925,32.2111231 24.3296484,30.8117285 C23.9110547,30.395918 23.2341797,30.3981445 22.8183691,30.8161816 C22.4020019,31.235332 22.4042285,31.9116504 22.8228222,32.3280175 C23.9422266,33.4407422 25.4123144,33.9968262 26.882959,33.9968262 C28.3536035,33.9968262 29.8242481,33.4401856 30.9436524,32.3280175 C31.3622462,31.9116504 31.3644726,31.235332 30.9481055,30.8161816 Z" id="Path"></path>
            <path d="M43.5721582,33.9968262 C45.0422462,33.9968262 46.5134472,33.4407422 47.6328516,32.3280175 C48.0514453,31.9116504 48.0531153,31.235332 47.6373047,30.8167382 C47.2214941,30.3981445 46.5446191,30.395918 46.1260254,30.8117285 C44.7177246,32.2116797 42.4265918,32.2116797 41.018291,30.8117285 C40.5996972,30.395918 39.9228222,30.3981445 39.506455,30.8167382 C39.0906445,31.235332 39.0928712,31.9116504 39.5114649,32.3280175 C40.6308691,33.4407422 42.100957,33.9968262 43.5721582,33.9968262 L43.5721582,33.9968262 Z" id="Path"></path>
            <path d="M29.5659668,41.2131153 C29.1495996,41.631709 29.1518262,42.308584 29.57042,42.7243945 C31.1206641,44.2651757 33.1579687,45.0350097 35.1997266,45.0350097 C37.255957,45.0350097 39.3155274,44.2545996 40.8852538,42.6948925 C41.3038476,42.2785254 41.3055175,41.6016504 40.889707,41.1830566 C40.4738965,40.7644629 39.7970215,40.762793 39.3784278,41.1786035 C37.0811719,43.4619434 33.3572462,43.4753028 31.0772462,41.2086621 C30.6586524,40.792295 29.9817774,40.7945215 29.5659668,41.2131153 L29.5659668,41.2131153 Z" id="Path"></path>
            <path d="M59.1926075,24.4220507 C61.0250684,25.1501368 61.4431055,25.5676172 62.1706347,27.3995215 C62.3966309,27.9689649 62.9382422,28.3369043 63.5505469,28.3369043 C64.1628516,28.3369043 64.7039062,27.9689649 64.9299024,27.4000781 C65.658545,25.5676172 66.0760254,25.1501368 67.9079297,24.4220507 C68.4773731,24.1960547 68.8447559,23.6544434 68.8447559,23.0421387 C68.8447559,22.429834 68.4773731,21.8882226 67.9084863,21.6622266 C66.0760254,20.9341406 65.658545,20.5166601 64.9299024,18.6825293 C64.7033496,18.1147559 64.1617382,17.7479297 63.5505469,17.7479297 C62.9387988,17.7479297 62.3971875,18.1147559 62.1711913,18.6836425 C61.4431055,20.5166601 61.0250684,20.9341406 59.1931641,21.6622266 C58.6242774,21.8882226 58.2563379,22.429834 58.2563379,23.0421387 C58.2563379,23.655 58.6242774,24.1960547 59.1926075,24.4220507 Z M63.5505469,20.7999903 C64.1127538,21.8331153 64.7595703,22.4799316 65.7932519,23.0421387 C64.7595703,23.6043457 64.1127538,24.2511621 63.5505469,25.2842871 C62.9883399,24.2511621 62.34208,23.6049024 61.3083984,23.0421387 C62.34208,22.4799316 62.9883399,21.8331153 63.5505469,20.7999903 Z" id="Shape"></path>
            <path d="M4.48040035,24.4649121 C6.31286129,25.1935547 6.73089844,25.6110351 7.45842777,27.4429394 C7.68386719,28.0123828 8.22547848,28.3797656 8.83833991,28.3797656 C9.45008785,28.3797656 9.99169929,28.0129394 10.2176953,27.4440528 C10.9457812,25.6110351 11.3632618,25.1935547 13.1962793,24.4649121 C13.765166,24.238916 14.1325488,23.6978613 14.1325488,23.0855566 C14.1325488,22.4732519 13.765166,21.9316406 13.1962793,21.7062012 C11.3632618,20.9775587 10.9457812,20.5600781 10.2176953,18.7270606 C9.99169929,18.1581738 9.45008785,17.790791 8.83833991,17.790791 C8.22547848,17.790791 7.68386719,18.1587305 7.45898438,18.7270606 C6.73089844,20.5600781 6.31286129,20.9775587 4.47984375,21.7062012 C3.91151371,21.9321972 3.54413089,22.4738087 3.54413089,23.0855566 C3.54413089,23.6973047 3.91151371,24.238916 4.48040035,24.4649121 Z M8.83833991,20.8434082 C9.40054687,21.8765332 10.0473632,22.5233496 11.0804882,23.0855566 C10.0473632,23.6477637 9.40054687,24.29458 8.83833991,25.327705 C8.27613281,24.29458 7.62931633,23.6477637 6.59619133,23.0855566 C7.62931633,22.5233496 8.27613281,21.8765332 8.83833991,20.8434082 Z" id="Shape"></path>
            <path d="M11.3415528,8.17204098 C12.7732325,8.74092777 13.074375,9.04207031 13.6432618,10.47375 C13.8575684,11.0125781 14.3702344,11.3610351 14.9502538,11.3610351 C15.5297168,11.3610351 16.0423828,11.0131347 16.2561328,10.4743066 C16.8255762,9.04207031 17.1267187,8.74092777 18.5583984,8.17204098 C19.0972266,7.95829098 19.4451269,7.445625 19.4451269,6.86560554 C19.4451269,6.28669929 19.0977832,5.77403317 18.5583984,5.55916996 C17.1267187,4.98972656 16.8255762,4.68858402 16.2566894,3.25746094 C16.0423828,2.71863281 15.5297168,2.37017571 14.9502538,2.37017571 C14.3702344,2.37017571 13.8575684,2.71807621 13.6438184,3.25690433 C13.0749316,4.68858402 12.7732325,4.98972656 11.3398828,5.55972656 C10.802168,5.77403317 10.4548243,6.28669929 10.4548243,6.86560554 C10.4548243,7.445625 10.8032812,7.95829098 11.3415528,8.17204098 Z M14.9496972,5.45285156 C15.3248731,6.05736321 15.7584962,6.49098629 16.3624512,6.86560554 C15.7584962,7.24022464 15.3248731,7.67384758 14.9496972,8.27780277 C14.5750781,7.67384758 14.1420118,7.24022464 13.5375,6.86560554 C14.1420118,6.49042969 14.5750781,6.05736321 14.9496972,5.45285156 Z" id="Shape"></path>
            <path d="M72.4156055,62.0787891 L71.7186913,61.3863281 C71.3000976,60.9705175 70.6232226,60.9721875 70.2074121,61.3907812 C69.791045,61.809375 69.7932715,62.48625 70.2118653,62.9020606 L70.7000391,63.3874512 L65.9129297,68.1461719 L61.1063379,63.3685254 C60.8358106,63.0991113 60.441709,62.9955762 60.0726562,63.0952149 C59.5794726,63.2293653 59.0701465,63.297832 58.5585938,63.297832 C57.0411913,63.297832 55.6145215,62.7111328 54.5429882,61.6457226 L44.2924512,51.4558594 C44.2100684,51.3740332 44.1666504,51.2699413 44.1666504,51.1552734 C44.1666504,51.0406055 44.2100684,50.9365137 44.2924512,50.8546875 C44.4605566,50.6876953 44.7477832,50.6876953 44.9147754,50.8541309 L50.7244337,56.6292774 C51.1413575,57.043418 51.8143359,57.043418 52.2312597,56.6287207 L53.1018457,55.7625879 C53.3039062,55.5621972 53.4169043,55.2894434 53.4169043,55.005 C53.4169043,54.7205566 53.3039062,54.4478028 53.1018457,54.2468555 L45.3573047,46.5485156 C45.2749219,46.4661328 45.2309472,46.362041 45.2309472,46.2473731 C45.2309472,46.132705 45.2749219,46.0286132 45.3567481,45.9467871 C45.5248535,45.779795 45.8115234,45.7792382 45.9796288,45.9473438 L53.7252832,53.6456837 C54.1416504,54.0603809 54.8151856,54.0598243 55.2321094,53.6456837 L56.1032519,52.7795507 C56.3047559,52.5791601 56.4183106,52.3058496 56.4183106,52.0219629 C56.4183106,51.7369629 56.3047559,51.464209 56.1032519,51.2638184 L48.3581543,43.5649219 C48.2757715,43.4830957 48.2323535,43.3790038 48.2323535,43.2643359 C48.2323535,43.149668 48.2757715,43.0455762 48.3581543,42.96375 C48.5262597,42.7962012 48.8123731,42.7967578 48.9810351,42.96375 L56.7261328,50.6626465 C57.1430566,51.0767871 57.8160351,51.0773438 58.232959,50.6626465 L59.1041016,49.7965137 C59.3061621,49.5961231 59.4197168,49.3233691 59.4197168,49.0383691 C59.4197168,48.7539257 59.3061621,48.4811719 59.1046582,48.2807813 L53.2955566,42.5067481 C53.2131738,42.4249219 53.1697559,42.32083 53.1697559,42.2056055 C53.1697559,42.0909375 53.2137305,41.9868457 53.2955566,41.9055762 C53.4636621,41.7380274 53.750332,41.7380274 53.9189941,41.9055762 L61.3674024,49.3100097 C61.6735547,49.6144922 62.1327832,49.704668 62.5313379,49.5387891 C62.9298925,49.3729101 63.1892871,48.9838184 63.1892871,48.5518653 L63.1892871,45.8783203 C63.1898437,45.429668 63.5600097,45.063955 64.0153418,45.063955 C64.4701172,45.063955 64.8408399,45.4291113 64.8408399,45.8783203 L64.8408399,52.5836132 C64.8408399,52.7817774 64.8953906,52.9754882 64.9994825,53.1441504 C65.8110644,54.462832 66.0392871,56.0787597 65.6257031,57.577793 C65.5232812,57.9496288 65.629043,58.3476269 65.9029101,58.6198243 L66.6488087,59.3612695 C67.0674024,59.7776368 67.7437207,59.7754101 68.1600879,59.3568163 C68.5758984,58.9382226 68.5742285,58.2613476 68.1556347,57.8455371 L67.8311132,57.5226856 C68.1667675,55.7386524 67.8661816,53.8778028 66.9783399,52.2936035 L66.9783399,45.8783203 C66.9783399,44.2507031 65.649082,42.926455 64.0147851,42.926455 C62.3816016,42.9270118 61.0523437,44.2507031 61.0517871,45.8783203 L61.0517871,45.9824121 L57.6418066,42.5924707 C57.7002538,42.2200781 57.7314257,41.8393359 57.7314257,41.4508007 C57.7314257,40.1660743 57.4024512,38.9570507 56.823545,37.9016601 C57.1825781,37.3088379 57.390205,36.6163769 57.390205,35.876045 L57.390205,32.3808984 C57.390205,30.8545899 56.5101562,29.5281153 55.2254297,28.8690528 L55.2254297,24.6992578 C55.2254297,19.4707325 53.1714257,15.0443262 49.2849609,11.8981934 C48.3113965,11.1099903 47.2331837,10.4186425 46.0703613,9.82860348 C45.5226269,4.35793942 40.8685547,0.07125 35.2270019,0.07125 C29.5848925,0.07125 24.9313769,4.35793942 24.3830859,9.82860348 C23.2202637,10.4186425 22.1420507,11.1099903 21.169043,11.8981934 C17.2825781,15.0443262 15.2280175,19.4707325 15.2280175,24.6992578 L15.2280175,28.8690528 C13.9438476,29.5286719 13.0637988,30.8551465 13.0637988,32.3808984 L13.0637988,35.876045 C13.0637988,36.9943359 13.5375,38.0035254 14.2945312,38.7238184 L13.9199121,44.4043359 C13.5658887,44.467793 13.2402538,44.6347851 12.981416,44.8925097 L11.5525195,46.3130566 C11.2146387,46.6487109 11.0287207,47.09625 11.0287207,47.573291 C11.0287207,47.994668 11.1745606,48.392666 11.4411913,48.7116212 L0.68578125,60.540791 C0.243251917,60.9911132 -2.83506552e-14,61.5861621 -2.83506552e-14,62.2185059 C-2.83506552e-14,62.8608691 0.251601562,63.4648243 0.708046875,63.9184863 C1.16226562,64.3704785 1.76677741,64.6192969 2.40858402,64.6192969 C3.04092777,64.6192969 3.63541996,64.3782715 4.08796875,63.9396387 L15.9961816,53.2404493 C16.31792,53.5132031 16.7214844,53.6634962 17.149541,53.6634962 C17.6254687,53.6634962 18.0724512,53.4792481 18.4081055,53.1452637 L19.8375587,51.7247168 C20.0969531,51.4664356 20.2656153,51.1419141 20.3307422,50.7895606 L26.5100097,50.3865528 C26.6881347,50.3748632 26.8590234,50.3375684 27.0198925,50.2796778 C27.9350097,50.7043945 28.899668,51.0389356 29.9027344,51.2760644 L29.9027344,53.2616016 L22.7821875,53.2616016 C16.3902832,53.2616016 11.1901465,58.4339063 11.1901465,64.7912988 L11.1901465,68.5881445 C11.1901465,69.5878712 12.003955,70.4016797 13.0042382,70.4016797 L57.4497656,70.4016797 C58.4506055,70.4016797 59.2644141,69.5878712 59.2644141,68.5881445 L59.2644141,65.4024903 C59.5165722,65.3802246 59.7681738,65.3462695 60.0169922,65.2995118 L64.609834,69.8645215 C64.958291,70.2107519 65.421416,70.4016797 65.9129297,70.4016797 C66.405,70.4016797 66.8675684,70.2107519 67.2160254,69.8645215 L72.4150488,64.6961132 C72.7612793,64.3521094 72.9594446,63.8750684 72.9594446,63.3874512 C72.9594446,62.9003906 72.7612793,62.422793 72.4156055,62.0787891 L72.4156055,62.0787891 Z M40.5523828,51.2766212 C41.0622656,51.1569434 41.5621288,51.0111035 42.0503028,50.8407715 C42.0380566,50.9443066 42.0291504,51.048955 42.0291504,51.1552734 C42.0291504,51.8416113 42.2980078,52.4867578 42.785625,52.9721484 L43.0773047,53.2616016 L40.5523828,53.2616016 L40.5523828,51.2766212 Z M55.4258203,40.3887305 C54.9398731,39.9055663 54.29417,39.6394922 53.6072754,39.6394922 C52.9209375,39.6394922 52.2752344,39.9055663 51.7887305,40.3892871 C51.3506543,40.8251368 51.0895899,41.3895703 51.0411621,41.9968653 L50.4878613,41.4474609 C50.0019141,40.9637403 49.3562109,40.697666 48.6698731,40.697666 C47.9835351,40.697666 47.337832,40.9642969 46.8513281,41.4474609 C46.3637109,41.932295 46.0954101,42.5774413 46.0954101,43.2643359 C46.0954101,43.4196387 46.1093262,43.5732715 46.136045,43.7235644 C45.9835254,43.6957325 45.8271094,43.6818163 45.6684668,43.6818163 C45.5871972,43.6818163 45.5064844,43.6857129 45.4263281,43.6935059 C45.1040332,43.0121778 44.9242382,42.2518066 44.9242382,41.4508007 C44.9242382,38.5295507 47.3172363,36.1538087 50.259082,36.1538087 C52.8608203,36.1538087 55.0322754,38.0124316 55.4998535,40.4627637 L55.4258203,40.3887305 Z M55.2532618,35.8754882 C55.2532618,35.8916309 55.2515918,35.9077734 55.2515918,35.923916 C54.3743262,35.1390528 53.3111425,34.5568066 52.1360743,34.2534375 L52.1360743,30.5612403 L53.3851757,30.5612403 C54.4155175,30.5612403 55.2532618,31.3772754 55.2532618,32.3803418 L55.2532618,35.8754882 Z M35.2275587,2.20819339 C39.3327832,2.20819339 42.787295,5.02813473 43.7319141,8.82052741 C41.1513281,7.88926754 38.2645899,7.39775383 35.2275587,7.39775383 C32.1905274,7.39775383 29.3037891,7.88926754 26.7226465,8.82052741 C27.6678222,5.02813473 31.122334,2.20819339 35.2275587,2.20819339 Z M15.2018555,32.3803418 C15.2018555,31.3772754 16.0401562,30.5612403 17.0699413,30.5612403 L18.319043,30.5612403 L18.319043,36.2300684 C17.4590332,36.2506641 16.5901172,36.3692285 15.7317774,36.5846484 C15.6182226,36.6130371 15.5096778,36.6525587 15.4066993,36.6998731 C15.2764453,36.452168 15.2018555,36.1727344 15.2018555,35.8754882 L15.2018555,32.3803418 Z M2.64181634,62.3649024 C2.62845696,62.3771484 2.61565433,62.3893945 2.60285156,62.4021972 C2.53661129,62.4678809 2.46090817,62.4817969 2.40858402,62.4817969 C2.35681633,62.4817969 2.28111321,62.4678809 2.21487308,62.4021972 C2.15085938,62.3392969 2.1375,62.2674903 2.1375,62.2185059 C2.1375,62.1695215 2.15085938,62.0977149 2.21487308,62.0342578 C2.22767571,62.0220118 2.23992188,62.0086524 2.25216804,61.995293 L12.9541406,50.2256837 L14.4732129,51.735293 L2.64181634,62.3649024 Z M17.149541,51.3823828 L13.3170703,47.5727344 L14.2405371,46.654834 L18.0730078,50.4644825 L17.149541,51.3823828 Z M26.1715722,48.2663087 L19.3421484,48.7116212 L19.2341601,48.6041894 L23.0627344,46.3420019 C23.5709472,46.0419726 23.7396094,45.3868066 23.4390234,44.8785937 C23.1389941,44.3703809 22.4838281,44.2017187 21.9756153,44.5017481 L17.6889257,47.0344629 L20.2305469,42.783955 C20.5333594,42.2768555 20.3685937,41.6211328 19.8614941,41.3177637 C19.3549512,41.0149512 18.6992285,41.1802734 18.3958594,41.6868163 L16.1141894,45.5031445 L15.9978516,45.3868066 L16.444834,38.6113769 C17.1606738,38.4466113 17.8815234,38.3631153 18.5906837,38.3631153 C20.7699316,38.3631153 22.7604785,39.1496484 24.1966113,40.576875 C26.1192481,42.4878222 26.8506738,45.3500684 26.1715722,48.2663087 Z M25.7034375,39.0611425 C24.2901269,37.6561816 22.4699121,36.7382812 20.456543,36.3875976 L20.456543,26.4760547 L24.6525,26.4760547 C25.2430957,26.4760547 25.72125,25.9979004 25.72125,25.4073047 C25.72125,24.8172656 25.2430957,24.3385547 24.6525,24.3385547 L20.2672851,24.3385547 C19.1929687,24.3385547 18.319043,25.2102538 18.319043,26.2817871 L18.319043,28.4237403 L17.3660743,28.4237403 L17.3660743,24.6987012 C17.3660743,20.1375879 19.1462109,16.2856347 22.5144434,13.5586524 C25.71958,10.9641504 30.2344922,9.53469723 35.2275587,9.53469723 C40.220625,9.53469723 44.7355371,10.9641504 47.9406738,13.5586524 C51.3083496,16.2856347 53.0884863,20.1375879 53.0884863,24.6987012 L53.0884863,28.4237403 L52.1360743,28.4237403 L52.1360743,26.2817871 C52.1360743,25.2102538 51.2621484,24.3385547 50.187832,24.3385547 L45.6027832,24.3385547 C43.6857129,24.3385547 41.8582618,23.3276953 40.8345996,21.7017481 C40.4766797,21.1306347 39.8599219,20.7905274 39.1841601,20.7905274 C38.508955,20.7905274 37.8916406,21.1306347 37.5337207,21.7006347 C36.5100587,23.3276953 34.6831641,24.3391113 32.7655371,24.3391113 L29.64,24.3391113 C29.0499609,24.3391113 28.57125,24.8172656 28.57125,25.4078613 C28.57125,25.9979004 29.0499609,26.4766113 29.64,26.4766113 L32.7655371,26.4766113 C35.3143945,26.4766113 37.7469141,25.1829785 39.1841601,23.0811035 C40.6214063,25.1824219 43.0539257,26.4766113 45.6027832,26.4766113 L49.9985743,26.4766113 L49.9985743,34.0224316 C45.9985547,34.1604785 42.7867382,37.4385351 42.7867382,41.4508007 C42.7867382,42.6397851 43.070625,43.7636425 43.5721582,44.7616993 C43.2632226,45.1925391 43.0940038,45.7063184 43.0940038,46.2473731 C43.0940038,46.8084668 43.276582,47.3406153 43.6088965,47.7820313 C41.6901563,48.9003222 39.4569141,49.5432422 37.0733788,49.5432422 L33.3828516,49.5432422 C31.5810059,49.5432422 29.8648828,49.1753028 28.3057325,48.513457 C29.0594238,44.950957 28.1042285,41.4474609 25.7034375,39.0611425 L25.7034375,39.0611425 Z M29.9595118,55.3991016 C31.1073047,55.3991016 32.0402344,54.4683984 32.0402344,53.3245019 L32.0402344,51.620625 C32.4827637,51.6595899 32.9303028,51.6807422 33.3828516,51.6807422 L37.0733788,51.6807422 C37.5253712,51.6807422 37.9729101,51.6601465 38.4148828,51.620625 L38.4148828,53.3245019 C38.4148828,54.4683984 39.3483691,55.3991016 40.4961621,55.3991016 L40.7494337,55.3991016 L35.2275587,63.8533594 L29.7056837,55.3991016 L29.9595118,55.3991016 Z M13.3276465,68.2641797 L13.3276465,64.7912988 C13.3276465,59.6123144 17.5686913,55.3991016 22.7821875,55.3991016 L22.8974121,55.3991016 L31.2999024,68.2641797 L13.3276465,68.2641797 Z M39.1546582,68.2641797 L41.5443163,64.6053809 C41.867168,64.111084 41.7280078,63.4492382 41.2342675,63.1263868 C40.7399707,62.8035351 40.0775684,62.9426953 39.7547168,63.4364356 L37.3155175,67.1714941 C36.9370019,67.7515137 36.3336035,68.1467285 35.6517188,68.2641797 L34.8028418,68.2641797 C34.1215137,68.1467285 33.5181153,67.7515137 33.1395996,67.1714941 L25.450166,55.3991016 L27.1523731,55.3991016 L34.3324805,66.3927538 C34.5300879,66.6944531 34.8662988,66.8764746 35.2275587,66.8764746 C35.5882618,66.8764746 35.9250293,66.6944531 36.12208,66.3927538 L43.3021875,55.3991016 L45.0043945,55.3991016 L42.4538672,59.3039356 C42.1310156,59.7982325 42.2701757,60.4606347 42.7644726,60.7834863 C43.2582129,61.1063379 43.9206153,60.9671778 44.2434668,60.4728809 L46.6403613,56.8035059 L53.0361621,63.161455 C54.1678125,64.2864257 55.5861328,65.0217481 57.1269141,65.3039649 L57.1269141,68.2641797 L39.1546582,68.2641797 Z" id="Shape"></path>
        </g>
    </g>
</svg>